<!-- <svg xmlns="http://www.w3.org/2000/svg" viewBox="0 0 841.9 595.3"><g fill="#61DAFB"><path d="M666.3 296.5c0-32.5-40.7-63.3-103.1-82.4 14.4-63.6 8-114.2-20.2-130.4-6.5-3.8-14.1-5.6-22.4-5.6v22.3c4.6 0 8.3.9 11.4 2.6 13.6 7.8 19.5 37.5 14.9 75.7-1.1 9.4-2.9 19.3-5.1 29.4-19.6-4.8-41-8.5-63.5-10.9-13.5-18.5-27.5-35.3-41.6-50 32.6-30.3 63.2-46.9 84-46.9V78c-27.5 0-63.5 19.6-99.9 53.6-36.4-33.8-72.4-53.2-99.9-53.2v22.3c20.7 0 51.4 16.5 84 46.6-14 14.7-28 31.4-41.3 49.9-22.6 2.4-44 6.1-63.6 11-2.3-10-4-19.7-5.2-29-4.7-38.2 1.1-67.9 14.6-75.8 3-1.8 6.9-2.6 11.5-2.6V78.5c-8.4 0-16 1.8-22.6 5.6-28.1 16.2-34.4 66.7-19.9 130.1-62.2 19.2-102.7 49.9-102.7 82.3 0 32.5 40.7 63.3 103.1 82.4-14.4 63.6-8 114.2 20.2 130.4 6.5 3.8 14.1 5.6 22.5 5.6 27.5 0 63.5-19.6 99.9-53.6 36.4 33.8 72.4 53.2 99.9 53.2 8.4 0 16-1.8 22.6-5.6 28.1-16.2 34.4-66.7 19.9-130.1 62-19.1 102.5-49.9 102.5-82.3zm-130.2-66.7c-3.7 12.9-8.3 26.2-13.5 39.5-4.1-8-8.4-16-13.1-24-4.6-8-9.5-15.8-14.4-23.4 14.2 2.1 27.9 4.7 41 7.9zm-45.8 106.5c-7.8 13.5-15.8 26.3-24.1 38.2-14.9 1.3-30 2-45.2 2-15.1 0-30.2-.7-45-1.9-8.3-11.9-16.4-24.6-24.2-38-7.6-13.1-14.5-26.4-20.8-39.8 6.2-13.4 13.2-26.8 20.7-39.9 7.8-13.5 15.8-26.3 24.1-38.2 14.9-1.3 30-2 45.2-2 15.1 0 30.2.7 45 1.9 8.3 11.9 16.4 24.6 24.2 38 7.6 13.1 14.5 26.4 20.8 39.8-6.3 13.4-13.2 26.8-20.7 39.9zm32.3-13c5.4 13.4 10 26.8 13.8 39.8-13.1 3.2-26.9 5.9-41.2 8 4.9-7.7 9.8-15.6 14.4-23.7 4.6-8 8.9-16.1 13-24.1zM421.2 430c-9.3-9.6-18.6-20.3-27.8-32 9 .4 18.2.7 27.5.7 9.4 0 18.7-.2 27.8-.7-9 11.7-18.3 22.4-27.5 32zm-74.4-58.9c-14.2-2.1-27.9-4.7-41-7.9 3.7-12.9 8.3-26.2 13.5-39.5 4.1 8 8.4 16 13.1 24 4.7 8 9.5 15.8 14.4 23.4zM420.7 163c9.3 9.6 18.6 20.3 27.8 32-9-.4-18.2-.7-27.5-.7-9.4 0-18.7.2-27.8.7 9-11.7 18.3-22.4 27.5-32zm-74 58.9c-4.9 7.7-9.8 15.6-14.4 23.7-4.6 8-8.9 16-13 24-5.4-13.4-10-26.8-13.8-39.8 13.1-3.1 26.9-5.8 41.2-7.9zm-90.5 125.2c-35.4-15.1-58.3-34.9-58.3-50.6 0-15.7 22.9-35.6 58.3-50.6 8.6-3.7 18-7 27.7-10.1 5.7 19.6 13.2 40 22.5 60.9-9.2 20.8-16.6 41.1-22.2 60.6-9.9-3.1-19.3-6.5-28-10.2zM310 490c-13.6-7.8-19.5-37.5-14.9-75.7 1.1-9.4 2.9-19.3 5.1-29.4 19.6 4.8 41 8.5 63.5 10.9 13.5 18.5 27.5 35.3 41.6 50-32.6 30.3-63.2 46.9-84 46.9-4.5-.1-8.3-1-11.3-2.7zm237.2-76.2c4.7 38.2-1.1 67.9-14.6 75.8-3 1.8-6.9 2.6-11.5 2.6-20.7 0-51.4-16.5-84-46.6 14-14.7 28-31.4 41.3-49.9 22.6-2.4 44-6.1 63.6-11 2.3 10.1 4.1 19.8 5.2 29.1zm38.5-66.7c-8.6 3.7-18 7-27.7 10.1-5.7-19.6-13.2-40-22.5-60.9 9.2-20.8 16.6-41.1 22.2-60.6 9.9 3.1 19.3 6.5 28.1 10.2 35.4 15.1 58.3 34.9 58.3 50.6-.1 15.7-23 35.6-58.4 50.6zM320.8 78.4z"/><circle cx="420.9" cy="296.5" r="45.7"/><path d="M520.5 78.1z"/></g></svg> -->
<svg version="1.1" id="Layer_1" xmlns="http://www.w3.org/2000/svg" xmlns:xlink="http://www.w3.org/1999/xlink" viewBox="0 0 512 512" xml:space="preserve" fill="#000000"><g id="SVGRepo_bgCarrier" stroke-width="0"></g><g id="SVGRepo_tracerCarrier" stroke-linecap="round" stroke-linejoin="round"></g><g id="SVGRepo_iconCarrier"> <circle style="fill:#273B7A;" cx="256" cy="256" r="256"></circle> <path style="fill:#121149;" d="M350.932,493.809c89.25-35.661,153.719-120.103,160.465-220.372L371.66,133.701l-20.711,37.386 l-0.421-0.421H238.187l-97.602,65.793l101.309,101.309l-38.088,8.914L350.932,493.809z"></path> <path style="fill:#FEE187;" d="M140.585,236.46c2.608,3.625,7.349,5.051,11.528,3.481c0.06-0.022,0.119-0.045,0.179-0.064 l70.749-23.554c-0.016-0.569-0.003-1.141,0.034-1.717c0.591-9.035,7.577-16.293,16.556-17.205l42.639-4.429 c2.698-0.281,5.11,1.679,5.389,4.375c0.281,2.698-1.677,5.172-4.375,5.389l-42.639,4.429c-4.208,0.459-7.496,3.837-7.773,8.08 c-0.15,2.315,0.609,4.553,2.139,6.296c1.531,1.745,3.651,2.789,5.966,2.939l56.611,3.691c6.358,0.412,12.671-0.991,18.253-4.065 l74.662-41.115l-20.218-40.769l-18.754,16.362c-7.966,6.947-18.516,9.942-28.948,8.208l-62.69-10.418 c-11.488-1.527-23.004,1.338-32.435,8.066l-85.354,58.782C138.29,226.557,137.612,232.331,140.585,236.46z"></path> <g> <path style="fill:#FFEDB5;" d="M240.647,207.165c-4.208,0.459-7.496,3.837-7.773,8.08c-0.15,2.315,0.609,4.553,2.139,6.296 c1.531,1.745,3.651,2.789,5.966,2.939l12.59,0.821v-19.478L240.647,207.165z"></path> <path style="fill:#FFEDB5;" d="M140.585,236.46c2.608,3.624,7.349,5.051,11.528,3.481c0.06-0.022,0.119-0.045,0.179-0.064 l70.749-23.554c-0.016-0.569-0.003-1.141,0.033-1.717c0.591-9.035,7.578-16.293,16.556-17.205l13.936-1.448v-39.977 c-9.326,0.057-18.413,2.972-26.11,8.464l-85.354,58.782C138.29,226.557,137.612,232.331,140.585,236.46z"></path> </g> <path style="fill:#FF314F;" d="M251.664,392.137c2.076,3.062,6.596,3.062,8.67,0c16.574-24.454,75.005-54.818,75.005-94.136 c0-27.115-17.761-39.671-39.671-39.671s-39.671,17.761-39.671,39.671c0-21.909-17.761-39.671-39.671-39.671 s-39.671,12.555-39.671,39.671C176.659,337.32,235.091,367.685,251.664,392.137z"></path> <path style="fill:#A30F44;" d="M295.671,258.332c-21.909,0-39.671,17.761-39.671,39.671c0-0.097-0.014-0.19-0.014-0.288v96.716 c1.653,0.005,3.308-0.759,4.349-2.294c16.574-24.452,75.005-54.818,75.005-94.136C335.341,270.888,317.58,258.332,295.671,258.332z"></path> <rect x="352.986" y="139.47" transform="matrix(0.8256 -0.5643 0.5643 0.8256 -31.0164 239.9867)" style="fill:#D35933;" width="39.418" height="61.392"></rect> <polygon style="fill:#B54324;" points="406.302,184.384 388.954,159.003 356.917,181.986 373.76,206.626 "></polygon> </g></svg>